<?xml version="1.0" encoding="utf-8"?>
<!-- Generator: Adobe Illustrator 27.9.0, SVG Export Plug-In . SVG Version: 6.00 Build 0)  -->
<svg version="1.1" id="Calque_1" xmlns="http://www.w3.org/2000/svg" xmlns:xlink="http://www.w3.org/1999/xlink" x="0px" y="0px"
	 viewBox="0 0 185.2 209.2" style="enable-background:new 0 0 185.2 209.2;" xml:space="preserve">
<style type="text/css">
	.st0{fill:#67737D;}
</style>
<path class="st0" d="M53,209.2c-13.6,0-27.1-5.2-37.5-15.5c-20.7-20.7-20.7-54.3,0-75l69.6-69.6c6.5-6.5,15.2-10.1,24.4-10.1
	s17.9,3.6,24.4,10.1c13.5,13.5,13.5,35.3,0,48.8l-57.3,57.3c-2.9,2.9-7.7,2.9-10.6,0s-2.9-7.7,0-10.6l57.3-57.3
	c7.6-7.6,7.6-20,0-27.6c-3.7-3.7-8.6-5.7-13.8-5.7s-10.1,2-13.8,5.7l-69.6,69.7c-14.8,14.8-14.8,38.9,0,53.7s38.9,14.8,53.7,0
	l74.2-74.2c10.4-10.4,16.1-24.2,16.1-38.9s-5.7-28.5-16.1-38.9C143.7,20.7,129.9,15,115.2,15s-28.5,5.7-38.9,16.1L22.9,84.5
	c-2.9,2.9-7.7,2.9-10.6,0s-2.9-7.7,0-10.6l53.4-53.4C78.9,7.3,96.5,0,115.2,0s36.3,7.3,49.5,20.5s20.5,30.8,20.5,49.5
	s-7.3,36.3-20.5,49.5l-74.2,74.2C80.1,204.1,66.5,209.2,53,209.2z"/>
</svg>
