<?xml version="1.0" encoding="utf-8"?>
<!-- Generator: Adobe Illustrator 27.9.0, SVG Export Plug-In . SVG Version: 6.00 Build 0)  -->
<svg version="1.1" xmlns="http://www.w3.org/2000/svg" xmlns:xlink="http://www.w3.org/1999/xlink" x="0px" y="0px"
	 viewBox="0 0 1920 1080" style="enable-background:new 0 0 1920 1080;" xml:space="preserve">
<style type="text/css">
	.st0{fill:#29134C;}
	.st1{display:none;}
</style>
<g id="Calque_1">
	<g>
		<g>
			<line class="st0" x1="1.4" y1="0" x2="1.4" y2="601.8"/>
			<rect x="-0.6" class="st0" width="4" height="601.8"/>
		</g>
		<g>
			<line class="st0" x1="197" y1="0" x2="197" y2="601.8"/>
			<rect x="195" class="st0" width="4" height="601.8"/>
		</g>
		<g>
			<line class="st0" x1="387.9" y1="0" x2="387.9" y2="601.8"/>
			<rect x="385.9" class="st0" width="4" height="601.8"/>
		</g>
		<g>
			<line class="st0" x1="572.5" y1="0" x2="572.5" y2="601.8"/>
			<rect x="570.5" class="st0" width="4" height="601.8"/>
		</g>
		<g>
			<line class="st0" x1="772" y1="0" x2="772" y2="601.8"/>
			<rect x="770" class="st0" width="4" height="601.8"/>
		</g>
		<g>
			<line class="st0" x1="960" y1="0" x2="960" y2="601.8"/>
			<rect x="958" class="st0" width="4" height="601.8"/>
		</g>
		<g>
			<line class="st0" x1="1154.5" y1="0" x2="1154.5" y2="601.8"/>
			<rect x="1152.5" class="st0" width="4" height="601.8"/>
		</g>
		<g>
			<line class="st0" x1="1349" y1="0" x2="1349" y2="601.8"/>
			<rect x="1347" class="st0" width="4" height="601.8"/>
		</g>
		<g>
			<line class="st0" x1="1541.5" y1="0" x2="1541.5" y2="601.8"/>
			<rect x="1539.5" class="st0" width="4" height="601.8"/>
		</g>
		<g>
			<line class="st0" x1="1729" y1="0" x2="1729" y2="601.8"/>
			<rect x="1727" class="st0" width="4" height="601.8"/>
		</g>
		<g>
			<line class="st0" x1="1920" y1="0" x2="1920" y2="601.8"/>
			<rect x="1918" class="st0" width="4" height="601.8"/>
		</g>
	</g>
</g>
<g id="Calque_2" class="st1">
</g>
</svg>
