<?xml version="1.0" encoding="utf-8"?>
<!-- Generator: Adobe Illustrator 27.9.0, SVG Export Plug-In . SVG Version: 6.00 Build 0)  -->
<svg version="1.1" xmlns="http://www.w3.org/2000/svg" xmlns:xlink="http://www.w3.org/1999/xlink" x="0px" y="0px"
	 viewBox="0 0 1920 1080" style="enable-background:new 0 0 1920 1080;" xml:space="preserve">
<style type="text/css">
	.st0{fill:#29134C;}
</style>
<g id="Calque_2">
</g>
<g id="Calque_1">
	<g>
		<path class="st0" d="M1762.6,993.6h-152.5l119.3,84.4l-2.5,3.5l-124.2-87.8h-152.2l90.2,84.5l-2.9,3.1l-93.5-87.6h-155.2l60,84.8
			l-3.5,2.5l-61.7-87.2h-159l31.1,85.2l-4,1.5l-31.6-86.7H962.1v86h-4.2v-86H803.4l-29.7,86.7l-4-1.4l29.3-85.3h-163l-62.6,87.2
			l-3.5-2.5l60.9-84.8H481.3l-92,87.7l-2.9-3.1l88.8-84.6H319.8L197,1081.5l-2.5-3.5l118-84.4H157.4l-155.9,88l-2.1-3.7l151.5-85.5
			V849.6L1.1,906.8l-1.5-4l151.3-57.8V695l-150,29l-0.8-4.2l150.8-29.2V542.1H0.5v-4.2h150.4V391.5L0,364.2l0.8-4.2l150.1,27.2
			V241.5L-0.3,185.6l1.5-4L150.9,237V87.6L-0.6,2.1l2.1-3.7l155.9,88h155L194.6,2l2.5-3.5l122.7,87.8h155.4L386.3,1.8l2.9-3.1
			l92,87.7h155.6L578,1.6l3.5-2.4L642,86.4h156.8L769.6,1.1l4-1.4l29.7,86.6h154.5V0.4h4.2v85.9h158.2l31.6-86.7l4,1.5l-31.1,85.2
			h159l61.7-87.2l3.5,2.5l-60,84.8h155.2l93.5-87.6l2.9,3.1l-90.2,84.5h152.2L1727-1.5l2.5,3.5l-119.3,84.4h152.5l155.9-88l2.1,3.7
			l-151.5,85.5V237l149.8-55.4l1.5,4l-151.3,56v145.6l150.1-27.2l0.8,4.2l-150.9,27.4v146.4h150.5v4.2h-150.5v148.5l150.9,29.2
			l-0.8,4.2l-150.1-29v145.6l151.1,56.3l-1.5,4l-149.7-55.7v147.3l151.5,85.5l-2.1,3.7L1762.6,993.6z M1661.6,931.8l102.1,57.6h1.2
			V843.5l-103.2-38.5V931.8z M1604.1,989.4h151l-99.1-55.9H1525L1604.1,989.4z M1446,989.4h150.8l-79.1-55.9h-131.4L1446,989.4z
			 M1286.1,989.4h153.7l-59.7-55.9h-133.6L1286.1,989.4z M1123.3,989.4h157.6l-39.5-55.9h-138.4L1123.3,989.4z M962.1,989.4h156.6
			l-20.4-55.9H962.1V989.4z M804.8,989.4h153.1v-55.9H824L804.8,989.4z M638.9,989.4h161.4l19.2-55.9H679L638.9,989.4z M485.7,989.4
			h147.9l40.1-55.9H544.4L485.7,989.4z M325.8,989.4h153.8l58.7-55.9H403.9L325.8,989.4z M165,989.4h153.5l78.1-55.9H264L165,989.4z
			 M155.1,848v141.4h1.2l102.1-57.6V808.6L155.1,848z M1580.6,886.1l76.8,43.3V803.5l-76.8-28.6V886.1z M262.6,806.9v122.5
			l76.8-43.3V777.6L262.6,806.9z M1519,929.2h129.4l-72.8-41.1h-114.7L1519,929.2z M1381.8,929.2h129.9l-58.1-41.1h-115.6
			L1381.8,929.2z M1243.5,929.2h132l-43.8-41.1h-117.2L1243.5,929.2z M1101.4,929.2h137l-29-41.1h-122.9L1101.4,929.2z M962.1,929.2
			h134.7l-15-41.1H962.1V929.2z M825.4,929.2h132.4v-41.1H839.5L825.4,929.2z M682.1,929.2h138.9l14.1-41.1H711.6L682.1,929.2z
			 M548.9,929.2h127.9l29.5-41.1H592L548.9,929.2z M409.8,929.2h132.9l43.1-41.1H467.2L409.8,929.2z M271.6,929.2h130.9l57.4-41.1
			H344.4L271.6,929.2z M1454.9,883.9h113.2l-52.1-29.4h5.9V853l54.5,30.7V773.3l-54.5-20.3v-4.5l54.5,20.3V657.7l-54.5-10.5v-4.3
			l54.5,10.5V542.1h-54.5v-4.2h54.5V426.5l-54.5,9.9V432l54.5-9.9V312.9l-54.5,20.2v-4.5l54.5-20.2V196.3l-54.5,30.7v-1.6h-5.9
			l52.1-29.4h-113.2l-41.6,29.4h-7.4l41.6-29.4h-114.2l-31.4,29.4h-6.2l31.4-29.4h-115.7l-20.8,29.4h-5.2l20.8-29.4h-121.4
			l-10.7,29.4h-4.5l10.7-29.4H962.1v29.4h-4.2v-29.4H841l10.1,29.4h-4.5l-10.1-29.4H718.2l20.4,29.4h-5.2L713,196.1H596.5l30.9,29.4
			h-6.2l-30.9-29.4H473.1l41.1,29.4h-7.3l-41.1-29.4H351.9l52.1,29.4h-5.9v1.6l-54.5-30.7v112l54.5,20.2v4.5l-54.5-20.2v109.3
			l54.5,9.9v4.3l-54.5-9.9v111.4h54.5v4.2h-54.5v111.3l54.5-10.5v4.3l-54.5,10.5v113.7l54.5-20.8v4.5L343.6,776v107.7l54.5-30.7v1.6
			h5.9l-52.1,29.4h113.9l41.1-29.4h7.3l-41.1,29.4h117.2l30.9-29.4h6.2l-30.9,29.4h112.9l21.1-29.4h5.2l-21.1,29.4h121.9l10.1-29.4
			h4.5L841,883.9h116.9v-29.4h4.2v29.4h118.2l-10.7-29.4h4.5l10.7,29.4h121.4l-20.8-29.4h5.2l20.8,29.4h115.7l-31.4-29.4h6.2
			l31.4,29.4h114.2l-41.6-29.4h7.4L1454.9,883.9z M155.1,694.2v149.3L258.4,804V674.2L155.1,694.2z M1661.6,800.6l103.2,38.5V694.2
			l-103.2-20V800.6z M262.6,673.4v129l76.8-29.3V658.5L262.6,673.4z M1580.6,770.4l76.8,28.6V673.4l-76.8-14.8V770.4z M155.1,689.8
			l103.2-20V542.1H155.1V689.8z M1661.6,669.9l103.2,20V542.1h-103.2V669.9z M262.6,669.1l76.8-14.8V542.1h-76.8V669.1z
			 M1580.6,654.2l76.8,14.8V542.1h-76.8V654.2z M1661.6,411v126.9h103.2V392.3L1661.6,411z M1580.6,425.7v112.2h76.8V411.8
			L1580.6,425.7z M262.6,537.9h76.8V425.7l-76.8-13.9V537.9z M155.1,537.9h103.2V411l-103.2-18.7V537.9z M1580.6,311.3v110.1
			l76.8-13.9V282.9L1580.6,311.3z M262.6,407.5l76.8,13.9V311.3l-76.8-28.4V407.5z M1661.6,281.3v125.3l103.2-18.7V243.1
			L1661.6,281.3z M155.1,388l103.2,18.7V281.3l-103.2-38.2V388z M1580.6,193.9v112.9l76.8-28.4V150.6L1580.6,193.9z M262.6,278.4
			l76.8,28.4V193.9l-76.8-43.3V278.4z M1661.6,148.2v128.6l103.2-38.2v-148h-1.2L1661.6,148.2z M155.1,238.6l103.2,38.2V148.2
			L156.3,90.6h-1.2V238.6z M1460.9,191.8h114.7l72.8-41.1H1519L1460.9,191.8z M1337.9,191.8h115.6l58.1-41.1h-129.9L1337.9,191.8z
			 M1214.5,191.8h117.2l43.8-41.1h-132L1214.5,191.8z M1086.4,191.8h122.9l29-41.1h-137L1086.4,191.8z M962.1,191.8h119.7l15-41.1
			H962.1V191.8z M839.5,191.8h118.4v-41.1H825.4L839.5,191.8z M715.3,191.8H835l-14.1-41.1H686.7L715.3,191.8z M592,191.8h118.1
			l-28.5-41.1H548.9L592,191.8z M467.1,191.8h118.7l-43.1-41.1h-133L467.1,191.8z M344.4,191.8h115.5l-57.4-41.1H271.6L344.4,191.8z
			 M1525,146.5H1656l99.1-55.9h-151L1525,146.5z M1386.3,146.5h131.4l79.1-55.9H1446L1386.3,146.5z M1246.5,146.5h133.6l59.7-55.9
			h-153.7L1246.5,146.5z M1102.9,146.5h138.4l39.5-55.9h-157.6L1102.9,146.5z M962.1,146.5h136.3l20.4-55.9H962.1V146.5z M824,146.5
			h133.9V90.6H804.8L824,146.5z M683.8,146.5h135.7l-19.2-55.9H645L683.8,146.5z M544.4,146.5h134.2l-38.8-55.9H485.7L544.4,146.5z
			 M403.8,146.5h134.5l-58.7-55.9H325.7L403.8,146.5z M264,146.5h132.5l-78.1-55.9H165L264,146.5z"/>
		<path d="M1918.4-1.1l1.7,3l-151,85.2l-0.4,0.2v0.4v148.7v1.1l1-0.4l148.9-55.1l1.2,3.3l-150.7,55.7l-0.5,0.2v0.5v144.9v0.9
			l0.9-0.2l149.3-27.1l0.6,3.4l-150.2,27.2l-0.6,0.1v0.6v145.7v0.8h0.8h149.8v3.5h-149.8h-0.8v0.8v147.8v0.6l0.6,0.1l150.2,29.1
			l-0.7,3.4l-149.3-28.9l-0.9-0.2v0.9v144.9v0.5l0.5,0.2l150.5,56.1l-1.2,3.3L1769.8,845l-1-0.4v1.1v146.6v0.4l0.4,0.2l151,85.2
			l-1.7,3l-155.5-87.7l-0.2-0.1h-0.2h-151.2h-2.4l1.9,1.4l118.1,83.5l-2,2.9L1603,993.4l-0.2-0.1h-0.2h-151.2h-1.9l1.4,1.3
			l89.2,83.6l-2.4,2.6l-93.1-87.2l-0.2-0.2h-0.3h-154.3h-1.4l0.8,1.2l59.3,83.9l-2.9,2l-61.4-86.8l-0.2-0.3h-0.4h-158.3h-1.1l0.4,1
			l30.7,84.4l-3.3,1.2l-31.4-86.1l-0.2-0.5h-0.5H962.5h-0.8v0.8v85.2h-3.5V994v-0.8h-0.8H803.6h-0.5l-0.2,0.5l-29.5,86.1l-3.3-1.1
			l29-84.5l0.3-1h-1H636h-0.4l-0.2,0.3l-62.3,86.8l-2.8-2l60.2-83.9l0.9-1.2h-1.5H481.4h-0.3l-0.2,0.2l-91.7,87.3l-2.4-2.5
			l87.9-83.7l1.4-1.3h-1.9H320h-0.2l-0.2,0.1L197.1,1081l-2-2.8l116.7-83.5l1.9-1.4h-2.3H157.5h-0.2l-0.2,0.1L1.6,1081.1l-1.7-3
			l151-85.2l0.4-0.2v-0.4V850.2v-1.1l-1,0.4L1.3,906.3l-1.2-3.3l150.7-57.6l0.5-0.2v-0.5V695.5v-0.9l-0.9,0.2L1.2,723.6l-0.7-3.4
			l150.1-29l0.6-0.1v-0.6V542.5v-0.8h-0.8H0.9v-3.5h149.6h0.8v-0.8V391.8v-0.6l-0.6-0.1L0.4,363.9l0.6-3.4l149.3,27.1l0.9,0.2v-0.9
			V241.8v-0.5l-0.5-0.2L0.2,185.4l1.2-3.3l148.8,55.1l1,0.4v-1.1V87.8v-0.4l-0.4-0.2L-0.1,2l1.7-3l155.5,87.7l0.2,0.1h0.2h153.8h2.3
			l-1.9-1.4L195.1,1.9l2-2.8l122.3,87.5l0.2,0.1h0.2h154.3h1.9l-1.4-1.3L386.8,1.8l2.4-2.5l91.7,87.3l0.2,0.2h0.3h154.7h1.4
			l-0.8-1.2L578.5,1.7l2.9-2l60.2,86.7l0.2,0.3h0.4h156.1h1l-0.3-1L770.1,1.3l3.3-1.1l29.5,86l0.2,0.5h0.5h153.9h0.8V86V0.8h3.5V86
			v0.8h0.8H1120h0.5l0.2-0.5l31.4-86.1l3.3,1.2l-30.7,84.4l-0.4,1h1.1h158.3h0.4l0.2-0.3l61.4-86.8l2.9,2l-59.3,83.9l-0.8,1.2h1.4
			h154.3h0.3l0.2-0.2l93.1-87.2l2.4,2.6l-89.2,83.6l-1.4,1.3h1.9h151.2h0.2l0.2-0.1l123.8-87.5l2,2.9l-118.1,83.5l-1.9,1.4h2.4
			h151.2h0.2l0.2-0.1L1918.4-1.1 M1661.2,277.4l1-0.4l102.5-37.9l0.5-0.2v-0.5V91v-0.8h-0.8h-0.7h-0.2l-0.2,0.1l-101.8,57.4
			l-0.4,0.2v0.4v127.9V277.4 M1523.8,146.9h2.4h129.7h0.2l0.2-0.1l97.7-55.1l2.5-1.4h-2.9h-149.4h-0.2l-0.2,0.1l-78,55.1
			L1523.8,146.9 M1385.3,146.9h1.9h130.3h0.2l0.2-0.1l78-55.1l1.9-1.4h-2.4h-149.4h-0.3l-0.2,0.2l-58.9,55.1L1385.3,146.9
			 M1245.8,146.9h1.4h132.7h0.3l0.2-0.2l58.9-55.1l1.4-1.3h-1.9h-152.5h-0.4l-0.2,0.3l-39,55.1L1245.8,146.9 M1102.4,146.9h1.1
			h137.7h0.4l0.2-0.3l39-55.1l0.8-1.2h-1.4h-156.6h-0.5l-0.2,0.5l-20.1,55.1L1102.4,146.9 M961.8,146.9h0.8h135.6h0.5l0.2-0.5
			l20.1-55.1l0.4-1h-1.1H962.5h-0.8V91v55.1V146.9 M823.7,146.9h0.5h133.3h0.8v-0.8V91v-0.8h-0.8H805.3h-1.1l0.3,1l18.9,55.1
			L823.7,146.9 M683.6,146.9h0.4h135h1l-0.3-1l-18.9-55.1l-0.2-0.5H800H645.7h-1.4l0.8,1.2l38.3,55.1L683.6,146.9 M544.3,146.9h0.3
			h133.3h1.4l-0.8-1.2l-38.3-55.1l-0.2-0.3h-0.4H486.7h-1.9l1.4,1.3l57.9,55.1L544.3,146.9 M403.7,146.9h0.2h133.4h1.9l-1.4-1.3
			l-57.9-55.1l-0.2-0.2h-0.3H326.9h-2.3l1.9,1.4l77.1,55.1L403.7,146.9 M263.9,146.9h0.2h131.2h2.3l-1.9-1.4l-77.1-55.1l-0.2-0.1
			h-0.2H166.4h-2.9l2.5,1.4l97.7,55.1L263.9,146.9 M258.8,277.3v-1.1V148.4V148l-0.4-0.2L156.6,90.3l-0.2-0.1h-0.2h-0.7h-0.8V91
			v147.3v0.5l0.5,0.2L257.7,277L258.8,277.3 M1580.2,307.3l1-0.4l76-28.1l0.5-0.2v-0.5V151.2V150l-1.1,0.6l-76,42.9l-0.4,0.2v0.4
			v112.1V307.3 M339.8,307.3v-1.1V194.1v-0.4l-0.4-0.2l-76-42.9l-1.1-0.6v1.3v126.9v0.5l0.5,0.2l76,28.1L339.8,307.3 M1459.7,192.2
			h2.4h113.4h0.2l0.2-0.1l71.5-40.3l2.5-1.4h-2.9h-127.9h-0.2l-0.2,0.1l-57,40.3L1459.7,192.2 M1337,192.2h1.9h114.6h0.2l0.2-0.1
			l57-40.3l1.9-1.4h-2.4h-128.6h-0.3l-0.2,0.2l-43,40.3L1337,192.2 M1213.7,192.2h1.4h116.4h0.3l0.2-0.2l43-40.3l1.4-1.3h-1.9
			h-130.9h-0.4l-0.2,0.3l-28.5,40.3L1213.7,192.2 M1085.9,192.2h1.1h122.1h0.4l0.2-0.3l28.5-40.3l0.8-1.2h-1.4h-136h-0.5l-0.2,0.5
			l-14.7,40.3L1085.9,192.2 M961.8,192.2h0.8h119.1h0.5l0.2-0.5l14.7-40.3l0.4-1h-1.1H962.5h-0.8v0.8v40.3V192.2 M839.2,192.2h0.5
			h117.7h0.8v-0.8v-40.3v-0.8h-0.8H826h-1.1l0.3,1l13.8,40.3L839.2,192.2 M715.1,192.2h0.4h119h1l-0.3-1l-13.8-40.3l-0.2-0.5h-0.5
			H687.5H686l0.8,1.2l28,40.3L715.1,192.2 M591.9,192.2h0.3h117.2h1.4L710,191l-28-40.3l-0.2-0.3h-0.4H549.8H548l1.4,1.3l42.3,40.3
			L591.9,192.2 M467,192.2h0.2h117.7h1.9l-1.4-1.3l-42.3-40.3l-0.2-0.2h-0.3H410.9h-2.3l1.9,1.4l56.3,40.3L467,192.2 M344.3,192.2
			h0.2h114.2h2.3l-1.9-1.4l-56.3-40.3l-0.2-0.1h-0.2H273h-2.9l2.5,1.4l71.5,40.3L344.3,192.2 M1522.2,226.4v-0.5v-0.8h-0.8h-4.1
			l49.6-28l2.5-1.4h-2.9H1455h-0.2l-0.2,0.1l-41.4,29.3h-6.1l39.6-28l1.9-1.4h-2.4h-112.8h-0.3l-0.2,0.2l-31.2,29.2h-5.1l30-28.1
			l1.4-1.3h-1.9h-114.6h-0.4l-0.2,0.3l-20.6,29.1h-4.3l20-28.2l0.8-1.2h-1.4h-120.4h-0.5l-0.2,0.5l-10.5,28.9h-3.7l10.3-28.4l0.4-1
			h-1.1H962.5h-0.8v0.8v28.6h-3.5v-28.6v-0.8h-0.8h-116h-1.1l0.3,1l9.7,28.4h-3.7l-9.9-28.9l-0.2-0.5h-0.5H718.9h-1.4l0.8,1.2
			l19.6,28.2h-4.3L713.5,196l-0.2-0.3h-0.4H597.4h-1.9l1.4,1.3l29.5,28.1h-5.1l-30.6-29.2l-0.2-0.2h-0.3H474.2h-2.3l1.9,1.4l39.2,28
			h-6l-40.9-29.3l-0.2-0.1h-0.2H353.3h-2.9l2.5,1.4l49.6,28h-4.1h-0.8v0.8v0.5l-53.4-30.1l-1.1-0.6v1.3v111.1v0.5l0.5,0.2l54,20v3.7
			l-53.5-19.8l-1-0.4v1.1v108.4v0.6l0.6,0.1l53.9,9.8v3.6l-53.6-9.7l-0.9-0.2v0.9v110.6v0.8h0.8h53.8v3.5H344h-0.8v0.8v110.4v0.9
			l0.9-0.2l53.6-10.4v3.6l-53.9,10.4l-0.6,0.1v0.6v112.9v1.1l1-0.4l53.5-20.4v3.7l-54,20.6l-0.5,0.2v0.5v106.8v1.3l1.1-0.6
			l53.4-30.1v0.5v0.8h0.8h4.1l-49.6,28l-2.5,1.4h2.9h112.4h0.2l0.2-0.1l40.9-29.2h6l-39.2,28l-1.9,1.4h2.3h115.9h0.3l0.2-0.2
			l30.6-29.2h5.1L596.9,883l-1.4,1.3h1.9h111.8h0.4l0.2-0.3l20.9-29.1h4.3l-20.2,28.2l-0.9,1.2h1.5h120.9h0.5l0.2-0.5l9.9-28.9h3.7
			l-9.7,28.4l-0.3,1h1.1h116h0.8v-0.8v-28.6h3.5v28.6v0.8h0.8h117.3h1.1l-0.4-1l-10.3-28.4h3.7l10.5,28.9l0.2,0.5h0.5h120.4h1.4
			l-0.8-1.2l-20-28.2h4.3L1211,884l0.2,0.3h0.4h114.6h1.9l-1.4-1.3l-30-28.1h5.1l31.2,29.2l0.2,0.2h0.3h112.8h2.4l-1.9-1.4l-39.6-28
			h6.1l41.4,29.3l0.2,0.1h0.2h111.7h2.9l-2.5-1.4l-49.6-28h4.1h0.8v-0.8v-0.5l53.4,30.1l1.1,0.6v-1.3V773.6v-0.5l-0.5-0.2l-54-20.1
			V749l53.5,19.9l1,0.4v-1.1V658v-0.6l-0.6-0.1l-53.9-10.4v-3.6l53.6,10.4l0.9,0.2v-0.9V542.5v-0.8h-0.8h-53.8v-3.5h53.8h0.8v-0.8
			V426.9V426l-0.9,0.2l-53.6,9.7v-3.6l53.9-9.8l0.6-0.1v-0.6V313.4v-1.1l-1,0.4l-53.5,19.8v-3.7l54-20l0.5-0.2v-0.5V196.9v-1.3
			l-1.1,0.6L1522.2,226.4 M258.8,407.1v-0.9V281.6v-0.5l-0.5-0.2L155.8,243l-1-0.4v1.1v144v0.6l0.6,0.1L257.9,407L258.8,407.1
			 M1661.2,407.1l0.9-0.2l102.5-18.6l0.6-0.1v-0.6v-144v-1.1l-1,0.4l-102.5,37.9l-0.5,0.2v0.5v124.6V407.1 M339.8,421.8v-0.9V311.5
			V311l-0.5-0.2l-76-28.1l-1-0.4v1.1v123.7v0.6l0.6,0.1l76,13.8L339.8,421.8 M1580.2,421.8l0.9-0.2l76-13.8l0.6-0.1v-0.6V283.5v-1.1
			l-1,0.4l-76,28.1l-0.5,0.2v0.5v109.4V421.8 M154.8,538.2h0.8H258h0.8v-0.8V411.3v-0.6l-0.6-0.1L155.6,392l-0.9-0.2v0.9v144.8
			V538.2 M1661.2,538.2h0.8h102.5h0.8v-0.8V392.7v-0.9l-0.9,0.2l-102.5,18.6l-0.6,0.1v0.6v126.2V538.2 M1580.2,538.2h0.8h76h0.8
			v-0.8V412.2v-0.9l-0.9,0.2l-76,13.8l-0.6,0.1v0.6v111.5V538.2 M262.2,538.2h0.8h76h0.8v-0.8V426v-0.6l-0.6-0.1l-76-13.8l-0.9-0.2
			v0.9v125.3V538.2 M1765.2,690.3v-0.9V542.5v-0.8h-0.8H1662h-0.8v0.8v127.1v0.6l0.6,0.1l102.5,19.8L1765.2,690.3 M1657.8,669.5
			v-0.9V542.5v-0.8h-0.8h-76h-0.8v0.8v111.4v0.6l0.6,0.1l76,14.7L1657.8,669.5 M262.2,669.5l0.9-0.2l76-14.7l0.6-0.1v-0.6V542.5
			v-0.8H339h-76h-0.8v0.8v126.1V669.5 M154.8,690.3l0.9-0.2l102.5-19.8l0.6-0.1v-0.6V542.5v-0.8H258H155.5h-0.8v0.8v146.9V690.3
			 M1657.8,799.5v-1.1V673.7v-0.6l-0.6-0.1l-76-14.7l-0.9-0.2v0.9v111.2v0.5l0.5,0.2l76,28.3L1657.8,799.5 M262.2,802.9l1-0.4l76-29
			l0.5-0.2v-0.5V659v-0.9l-0.9,0.2l-76,14.7l-0.6,0.1v0.6v128.1V802.9 M1765.2,839.5v-1.1v-144v-0.6l-0.6-0.1l-102.5-19.8l-0.9-0.2
			v0.9v125.7v0.5l0.5,0.2l102.5,38.2L1765.2,839.5 M154.8,844l1-0.4l102.5-39.2l0.5-0.2v-0.5V674.7v-0.9l-0.9,0.2l-102.5,19.8
			l-0.6,0.1v0.6v148.4V844 M1657.8,930v-1.3v-125v-0.5l-0.5-0.2l-76-28.3l-1-0.4v1.1v110.4v0.4l0.4,0.2l76,42.9L1657.8,930
			 M262.2,930l1.1-0.6l76-42.9l0.4-0.2v-0.4V778.2v-1.1l-1,0.4l-76,29l-0.5,0.2v0.5v121.6V930 M1763.6,989.7h0.2h0.7h0.8V989V843.8
			v-0.5l-0.5-0.2l-102.5-38.2l-1-0.4v1.1v125.9v0.4l0.4,0.2l101.8,57.4L1763.6,989.7 M154.8,989.7h0.8h0.7h0.2l0.2-0.1l101.8-57.4
			l0.4-0.2v-0.4V809.1V808l-1,0.4l-102.5,39.2l-0.5,0.2v0.5V989V989.7 M1518.9,929.6h0.2H1647h2.9l-2.5-1.4l-71.5-40.3l-0.2-0.1
			h-0.2h-113.4h-2.4l1.9,1.4l57,40.3L1518.9,929.6 M1381.6,929.6h0.3h128.6h2.4l-1.9-1.4l-57-40.3l-0.2-0.1h-0.2h-114.6h-1.9
			l1.4,1.3l43,40.3L1381.6,929.6 M1243.3,929.6h0.4h130.9h1.9l-1.4-1.3l-43-40.3l-0.2-0.2h-0.3h-116.4h-1.4l0.8,1.2l28.5,40.3
			L1243.3,929.6 M1101.1,929.6h0.5h136h1.4l-0.8-1.2l-28.5-40.3l-0.2-0.3h-0.4h-122.1h-1.1l0.4,1l14.7,40.3L1101.1,929.6
			 M961.8,929.6h0.8h133.8h1.1l-0.4-1l-14.7-40.3l-0.2-0.5h-0.5H962.5h-0.8v0.8v40.3V929.6 M824.9,929.6h1h131.5h0.8v-0.8v-40.3
			v-0.8h-0.8H839.8h-0.5l-0.2,0.5l-13.8,40.3L824.9,929.6 M681.3,929.6h1.5h137.9h0.5l0.2-0.5l13.8-40.3l0.3-1h-1.1H711.7h-0.4
			l-0.2,0.3l-28.9,40.3L681.3,929.6 M548,929.6h1.9h126.8h0.4l0.2-0.3l28.9-40.3l0.9-1.2h-1.5H592.2h-0.3l-0.2,0.2l-42.3,40.3
			L548,929.6 M408.6,929.6h2.3h131.6h0.3l0.2-0.2l42.3-40.3l1.4-1.3h-1.9H467.3h-0.2l-0.2,0.1l-56.3,40.3L408.6,929.6 M270.1,929.6
			h2.9h129.4h0.2l0.2-0.1l56.3-40.3l1.9-1.4h-2.3H344.5h-0.2l-0.2,0.1l-71.5,40.3L270.1,929.6 M1604,989.7h0.2h149.4h2.9l-2.5-1.4
			l-97.7-55.1l-0.2-0.1h-0.2h-129.7h-2.4l1.9,1.4l78,55.1L1604,989.7 M1445.8,989.7h0.3h149.4h2.4l-1.9-1.4l-78-55.1l-0.2-0.1h-0.2
			h-130.3h-1.9l1.4,1.3l58.9,55.1L1445.8,989.7 M1285.9,989.7h0.4h152.5h1.9l-1.4-1.3l-58.9-55.1l-0.2-0.2h-0.3h-132.7h-1.4l0.8,1.2
			l39,55.1L1285.9,989.7 M1123,989.7h0.5h156.6h1.4l-0.8-1.2l-39-55.1l-0.2-0.3h-0.4h-137.7h-1.1l0.4,1l20.1,55.1L1123,989.7
			 M961.8,989.7h0.8h155.7h1.1l-0.4-1l-20.1-55.1l-0.2-0.5h-0.5H962.5h-0.8v0.8V989V989.7 M804.3,989.7h1h152.2h0.8V989v-55.1v-0.8
			h-0.8H824.2h-0.5l-0.2,0.5l-18.9,55.1L804.3,989.7 M638.2,989.7h1.5h160.4h0.5l0.2-0.5l18.9-55.1l0.3-1h-1H679.2h-0.4l-0.2,0.3
			L639,988.6L638.2,989.7 M484.8,989.7h1.9h146.8h0.4l0.2-0.3l39.6-55.1l0.9-1.2h-1.5H544.6h-0.3l-0.2,0.2l-57.9,55.1L484.8,989.7
			 M324.6,989.7h2.3h152.5h0.3l0.2-0.2l57.9-55.1l1.4-1.3h-1.9H404h-0.2l-0.2,0.1l-77,55.1L324.6,989.7 M163.5,989.7h2.9h152h0.2
			l0.2-0.1l77-55.1l1.9-1.4h-2.3H264.1h-0.2l-0.2,0.1L166,988.3L163.5,989.7 M1918.7-2.1L1762.5,86h-151.2l118.7-83.9l-2.9-4.1
			l-124.4,88h-151.2l89.8-84.1l-3.4-3.6L1444.1,86h-154.3l59.8-84.5l-4.1-2.9L1283.7,86h-158.3l31-85.1l-4.7-1.7L1120,86H962.5V0.1
			h-5V86H803.6L773.9-0.7l-4.7,1.6L798.3,86H642.2L581.6-1.4l-4.1,2.9L636.1,86H481.4L389.2-1.8l-3.4,3.6L474.2,86H319.9L197-2
			L194,2.1L311.3,86H157.5L1.3-2.1l-2.5,4.4l151.6,85.5v148.7L1,181.2l-1.7,4.7l151.2,56v144.9L0.4,359.5l-0.9,4.9l150.9,27.4v145.7
			H0.1v5h150.4v147.9L-0.4,719.5l0.9,4.9l149.9-29v149.4L-0.9,902.6l1.8,4.7l149.6-57.1v142.1l-151.6,85.5l2.5,4.4L157.5,994h153.8
			L194,1078l2.9,4.1l123-88h154.2l-88.4,84.2l3.4,3.6l92.2-87.8h148.4l-60.7,84.5l4.1,2.9L636,994h162.3l-29.2,85.2l4.7,1.6
			l29.8-86.8h153.9v86h5v-86H1120l31.6,86.8l4.7-1.7l-31-85.1h158.3l61.8,87.4l4.1-2.9l-59.8-84.5h154.3l93.7,87.8l3.4-3.6
			l-89.8-84.1h151.2l124.4,88l2.9-4.1L1611.3,994h151.2l156.2,88.1l2.5-4.4l-151.6-85.5V845.7l149.5,55.7l1.7-4.7l-151.3-56.3V695.4
			l150,29l0.9-4.9l-151-29.2V542.5H1920v-5h-150.5V391.8l150.9-27.4l-0.9-4.9l-150.1,27.2V241.8l151.4-56l-1.7-4.7l-149.6,55.4V87.8
			l151.6-85.5L1918.7-2.1L1918.7-2.1z M1662,276.3V148.4L1763.8,91h0.7v147.4L1662,276.3L1662,276.3z M1526.2,146.1l78-55.1h149.4
			l-97.7,55.1H1526.2L1526.2,146.1z M1387.2,146.1l58.9-55.1h149.4l-78,55.1H1387.2L1387.2,146.1z M1247.2,146.1l39-55.1h152.5
			l-58.9,55.1H1247.2L1247.2,146.1z M1103.4,146.1l20.1-55.1h156.6l-39,55.1H1103.4L1103.4,146.1z M962.5,146.1V91h155.7l-20.1,55.1
			H962.5L962.5,146.1z M824.2,146.1L805.3,91h152.2v55.1H824.2L824.2,146.1z M684,146.1L645.7,91H800l18.9,55.1H684L684,146.1z
			 M544.6,146.1L486.7,91h152.9l38.3,55.1H544.6L544.6,146.1z M403.9,146.1L326.9,91h152.6l57.9,55.1H403.9L403.9,146.1z
			 M264.1,146.1L166.4,91h151.9l77.1,55.1H264.1L264.1,146.1z M258,276.2l-102.5-37.9V91h0.7L258,148.4V276.2L258,276.2z
			 M1462.1,191.5l57-40.3H1647l-71.5,40.3H1462.1L1462.1,191.5z M1338.9,191.5l43-40.3h128.6l-57,40.3H1338.9L1338.9,191.5z
			 M1215.2,191.5l28.5-40.3h130.9l-43,40.3H1215.2L1215.2,191.5z M1086.9,191.5l14.7-40.3h136l-28.5,40.3H1086.9L1086.9,191.5z
			 M962.5,191.5v-40.3h133.8l-14.7,40.3H962.5L962.5,191.5z M839.8,191.5L826,151.1h131.5v40.3H839.8L839.8,191.5z M715.5,191.5
			l-28-40.3h133.2l13.8,40.3H715.5L715.5,191.5z M592.2,191.5l-42.3-40.3h131.5l28,40.3H592.2L592.2,191.5z M467.3,191.5l-56.3-40.3
			h131.7l42.3,40.3H467.3L467.3,191.5z M344.5,191.5L273,151.1h129.3l56.3,40.3H344.5L344.5,191.5z M1581,306.2V194.1l76-42.9v126.9
			L1581,306.2L1581,306.2z M339,306.2l-76-28.1V151.2l76,42.9V306.2L339,306.2z M1566.7,196.5l-52.1,29.4h6.9v1.8l54.5-30.7v111.1
			l-54.5,20.2v5.3l54.5-20.2v108.4l-54.5,9.9v5.1l54.5-9.9v110.6h-54.5v5h54.5v110.4l-54.5-10.5v5.1L1576,658v110.3l-54.5-20.3v5.3
			l54.5,20.3v109.5l-54.5-30.7v1.8h-6.9l52.1,29.4H1455l-41.6-29.4h-8.7l41.6,29.4h-112.8l-31.4-29.4h-7.3l31.4,29.4h-114.6
			l-20.8-29.4h-6.1l20.8,29.4h-120.4l-10.7-29.4h-5.3l10.7,29.4H962.5v-29.4h-5v29.4h-116l10.1-29.4h-5.3l-10.1,29.4H715.3
			l21.1-29.4h-6.2l-21.1,29.4H597.4l30.9-29.4H621l-30.9,29.4H474.3l41.1-29.4h-8.6l-41.1,29.4H353.3l52.1-29.4h-6.9v-1.8L344,883.1
			V776.2l54.5-20.8v-5.4L344,770.9V658l54.5-10.5v-5.1L344,652.9V542.5h54.5v-5H344V426.9l54.5,9.9v-5.1l-54.5-9.9V313.4l54.5,20.2
			v-5.3L344,308.1V196.9l54.5,30.7v-1.8h6.9l-52.1-29.4h112.3l41.1,29.4h8.6l-41.1-29.4h115.9l30.9,29.4h7.3l-30.9-29.4h115.4
			l20.4,29.4h6.1l-20.4-29.4h117.3l10.1,29.4h5.3l-10.1-29.4h116v29.4h5v-29.4h117.3l-10.7,29.4h5.3l10.7-29.4h120.4l-20.8,29.4h6.1
			l20.8-29.4h114.6l-31.4,29.4h7.3l31.4-29.4h112.8l-41.6,29.4h8.7l41.6-29.4H1566.7L1566.7,196.5z M258,406.2l-102.5-18.6v-144
			L258,281.6V406.2L258,406.2z M1662,406.2V281.6l102.5-37.9v144L1662,406.2L1662,406.2z M339,420.9l-76-13.8V283.4l76,28.1V420.9
			L339,420.9z M1581,420.9V311.6l76-28.1v123.7L1581,420.9L1581,420.9z M155.5,537.5V392.7L258,411.3v126.2H155.5L155.5,537.5z
			 M1662,537.5V411.3l102.5-18.6v144.8H1662L1662,537.5z M1581,537.5V426l76-13.8v125.3H1581L1581,537.5z M263,537.5V412.2l76,13.8
			v111.5H263L263,537.5z M1764.5,689.4L1662,669.6V542.5h102.5V689.4L1764.5,689.4z M1657,668.6l-76-14.7V542.5h76V668.6L1657,668.6
			z M263,668.6V542.5h76v111.4L263,668.6L263,668.6z M155.5,689.4V542.5H258v127.1L155.5,689.4L155.5,689.4z M1657,798.4l-76-28.3
			V659l76,14.7V798.4L1657,798.4z M263,801.8V673.7l76-14.7v113.8L263,801.8L263,801.8z M1764.5,838.5L1662,800.3V674.6l102.5,19.8
			V838.5L1764.5,838.5z M155.5,842.9V694.5L258,674.7v129.1L155.5,842.9L155.5,842.9z M1657,928.8l-76-42.9V775.5l76,28.3V928.8
			L1657,928.8z M263,928.8V807.2l76-29v107.7L263,928.8L263,928.8z M1763.8,989L1662,931.6V805.6l102.5,38.2V989H1763.8L1763.8,989z
			 M155.5,989V848.2L258,809.1v122.5L156.2,989H155.5L155.5,989z M1519.1,928.9l-57-40.3h113.4l71.5,40.3H1519.1L1519.1,928.9z
			 M1381.9,928.9l-43-40.3h114.6l57,40.3H1381.9L1381.9,928.9z M1243.7,928.9l-28.5-40.3h116.4l43,40.3H1243.7L1243.7,928.9z
			 M1101.6,928.9l-14.7-40.3h122.1l28.5,40.3H1101.6L1101.6,928.9z M962.5,928.9v-40.3h119.1l14.7,40.3H962.5L962.5,928.9z
			 M826,928.9l13.8-40.3h117.7v40.3H826L826,928.9z M682.8,928.9l28.9-40.3h122.8l-13.8,40.3H682.8L682.8,928.9z M549.8,928.9
			l42.3-40.3h113.4l-28.9,40.3H549.8L549.8,928.9z M411,928.9l56.3-40.3h117.6l-42.3,40.3H411L411,928.9z M273,928.9l71.5-40.3
			h114.2l-56.3,40.3H273L273,928.9z M1604.2,989l-78-55.1h129.7l97.7,55.1H1604.2L1604.2,989z M1446.1,989l-58.9-55.1h130.3l78,55.1
			H1446.1L1446.1,989z M1286.2,989l-39-55.1h132.7l58.9,55.1H1286.2L1286.2,989z M1123.5,989l-20.1-55.1h137.7l39,55.1H1123.5
			L1123.5,989z M962.5,989v-55.1h135.6l20.1,55.1H962.5L962.5,989z M805.3,989l18.9-55.1h133.3V989H805.3L805.3,989z M639.6,989
			l39.6-55.1H819L800.1,989H639.6L639.6,989z M486.7,989l57.9-55.1h128.5L633.5,989H486.7L486.7,989z M326.9,989l77-55.1h133.3
			L479.4,989H326.9L326.9,989z M166.4,989l97.7-55.1h131.2l-77,55.1H166.4L166.4,989z"/>
	</g>
</g>
</svg>
