<?xml version="1.0" encoding="utf-8"?>
<!-- Generator: Adobe Illustrator 27.9.0, SVG Export Plug-In . SVG Version: 6.00 Build 0)  -->
<svg version="1.1" id="Calque_1" xmlns="http://www.w3.org/2000/svg" xmlns:xlink="http://www.w3.org/1999/xlink" x="0px" y="0px"
	 viewBox="0 0 1000 1000" style="enable-background:new 0 0 1000 1000;" xml:space="preserve">
<style type="text/css">
	.st0{fill:url(#SVGID_1_);}
	.st1{fill:url(#SVGID_00000168115834525738817900000009812221662976498311_);}
	.st2{fill:#452594;}
	.st3{fill:url(#SVGID_00000113311672365152423660000009713753729081493167_);}
	.st4{fill:url(#SVGID_00000145049415341037992850000008280541001794865305_);}
	.st5{fill:url(#SVGID_00000158746392599743062530000000606830312523133853_);}
	.st6{fill:#8C39E2;}
	.st7{fill:url(#SVGID_00000177484089849735416640000002136112772774300859_);}
	.st8{fill:url(#SVGID_00000178182369811976432910000013161155940445106103_);}
	.st9{fill:url(#SVGID_00000025422692585826075300000001796895735386825377_);}
	.st10{fill:url(#SVGID_00000015317368371743153950000009237885051465984435_);}
	.st11{fill:url(#SVGID_00000020398474068967296770000003200041819813725623_);}
	.st12{fill:#FFFFFF;}
</style>
<g>
	<g>
		<linearGradient id="SVGID_1_" gradientUnits="userSpaceOnUse" x1="499.9997" y1="966.3077" x2="499.9997" y2="158.8891">
			<stop  offset="0" style="stop-color:#301478"/>
			<stop  offset="1" style="stop-color:#A957FF"/>
		</linearGradient>
		<polygon class="st0" points="220.4,250 359.8,276.5 447.2,401.8 447.2,717.2 396.1,767 441.2,829.3 441.2,871.3 420.4,893.1 
			360.6,797.3 360.6,743.6 404.8,705.5 364.1,534.2 149.3,347.3 149.3,415.1 315.6,555.2 371,699.2 332.1,733.5 332.1,856.5 
			403.9,966.3 500,966.3 596.1,966.3 667.9,856.5 667.9,733.5 629,699.2 684.4,555.2 850.7,415.1 850.7,347.3 635.9,534.2 
			595.2,705.5 639.4,743.6 639.4,797.3 579.6,893.1 558.8,871.3 558.8,829.3 603.9,767 552.8,717.2 552.8,401.8 640.2,276.5 
			779.6,250 733.7,158.9 655.8,175.2 510.3,303.7 510.3,711.7 500,718.1 489.7,711.7 489.7,303.7 344.2,175.2 266.3,158.9 		"/>
		
			<linearGradient id="SVGID_00000093877643453423543030000012782630025545941646_" gradientUnits="userSpaceOnUse" x1="500" y1="968.6532" x2="500" y2="156.223">
			<stop  offset="0.5" style="stop-color:#F5F0FF;stop-opacity:0"/>
			<stop  offset="1" style="stop-color:#F5F0FF"/>
		</linearGradient>
		<path style="fill:url(#SVGID_00000093877643453423543030000012782630025545941646_);" d="M597.3,968.7H402.7l-73-111.4V732.4
			l38.5-33.9l-54.6-142L147,416.1v-74l219.2,190.7l41.2,173.4L363,744.7v52l57.8,92.6l18-18.9V830l-45.8-63.3l51.8-50.6V402.6
			l-86.5-124l-141.5-26.9l48.1-95.5l80.3,16.8L492,302.7v407.7l8,4.9l8-4.9V302.7l0.8-0.7l145.9-128.9l80.3-16.8l48.1,95.5
			l-141.5,26.9l-86.5,124v313.6l51.8,50.6L561.2,830v40.3l18,18.9l57.8-92.6v-52l-44.4-38.4l0.3-1.4l40.9-172l0.6-0.5L853,342.2v74
			L686.4,556.6l-54.6,142l38.5,33.9v124.8L597.3,968.7z M405.2,964h189.6l70.8-108.1V734.6l-39.4-34.6l0.6-1.5l55.6-144.6L848.3,414
			v-61.5L638,535.5l-40.2,169.2l43.9,37.9V798L580,896.9l-23.5-24.7v-43.7l0.4-0.6l43.8-60.6l-50.4-49.1V401.1l0.4-0.6l88-126.1
			l137.3-26.1l-43.7-86.7l-75.6,15.9L512.7,304.8V713l-12.7,7.8l-12.7-7.8V304.8L343.1,177.4l-75.6-15.9l-43.7,86.7l137.3,26.1
			l88.4,126.7v317.1l-50.4,49.1l44.3,61.3v43.7L420,896.9L358.3,798v-55.5l43.9-37.9L362,535.5l-210.3-183V414l165.9,139.8l0.2,0.6
			l56,145.6l-39.4,34.6v121.3L405.2,964z"/>
	</g>
	<g>
		<polygon class="st2" points="252.4,584.3 149.3,494.7 149.3,546.1 252.4,632.9 		"/>
		
			<linearGradient id="SVGID_00000075850394843413390940000006307922624816278690_" gradientUnits="userSpaceOnUse" x1="200.8707" y1="637.9752" x2="200.8707" y2="489.5268">
			<stop  offset="0.5" style="stop-color:#F5F0FF;stop-opacity:0"/>
			<stop  offset="1" style="stop-color:#F5F0FF"/>
		</linearGradient>
		<path style="fill:url(#SVGID_00000075850394843413390940000006307922624816278690_);" d="M254.7,638L147,547.2v-57.6l107.7,93.7
			V638z M151.7,545l98.4,82.9v-42.5l-98.4-85.6V545z"/>
	</g>
	<g>
		<polygon class="st2" points="252.4,734.3 149.3,644.6 149.3,684.3 252.4,771.2 		"/>
		
			<linearGradient id="SVGID_00000090271565071016347110000001836169914864930998_" gradientUnits="userSpaceOnUse" x1="200.8707" y1="776.2274" x2="200.8707" y2="639.4579">
			<stop  offset="0.5" style="stop-color:#F5F0FF;stop-opacity:0"/>
			<stop  offset="1" style="stop-color:#F5F0FF"/>
		</linearGradient>
		<path style="fill:url(#SVGID_00000090271565071016347110000001836169914864930998_);" d="M254.7,776.2L147,685.4v-46l107.7,93.7
			V776.2z M151.7,683.2l98.4,82.9v-30.8l-98.4-85.6V683.2z"/>
	</g>
	<g>
		<polygon class="st2" points="252.4,880.7 252.4,847.3 188.3,792.7 188.3,828.9 		"/>
		
			<linearGradient id="SVGID_00000107578387388617950340000011394168267240535987_" gradientUnits="userSpaceOnUse" x1="220.3548" y1="885.6119" x2="220.3548" y2="787.5837">
			<stop  offset="0.5" style="stop-color:#F5F0FF;stop-opacity:0"/>
			<stop  offset="1" style="stop-color:#F5F0FF"/>
		</linearGradient>
		<path style="fill:url(#SVGID_00000107578387388617950340000011394168267240535987_);" d="M254.7,885.6L186,830v-42.4l68.8,58.6
			V885.6z M190.7,827.8l59.4,48v-27.4l-59.4-50.6V827.8z"/>
	</g>
	<g>
		<path class="st6" d="M199.6,111.8c-17.3,19.3-34.7,34.9-50.2,47.1c0,31.8,0,63.6,0,95.4c17.7-20.5,37.2-46.8,54.6-79.3
			c27-50.5,38.5-97,43.7-131C236.8,63.7,221.4,87.3,199.6,111.8z"/>
		
			<linearGradient id="SVGID_00000116196020532644808200000018411317478281608616_" gradientUnits="userSpaceOnUse" x1="199.4731" y1="260.5713" x2="199.4731" y2="31.3468">
			<stop  offset="0.5" style="stop-color:#F5F0FF;stop-opacity:0"/>
			<stop  offset="1" style="stop-color:#F5F0FF"/>
		</linearGradient>
		<path style="fill:url(#SVGID_00000116196020532644808200000018411317478281608616_);" d="M147,260.6V157.7l0.9-0.7
			c18.1-14.2,34.9-30,49.9-46.8l1.8,1.6l-1.8-1.6c18.5-20.8,34.6-43.4,47.8-67.3l6.4-11.6l-2,13.1c-7,46-21.8,90.3-43.9,131.7
			c-15,28.1-33.5,54.9-54.9,79.7L147,260.6z M151.7,160v87.9c19.4-23.1,36.3-48,50.2-74c19.8-37.1,33.7-76.5,41.3-117.3
			c-12,20-26,39.1-41.8,56.8l0,0C186.4,130.1,169.7,145.8,151.7,160z"/>
	</g>
	<g>
		<polygon class="st2" points="850.7,494.7 747.6,584.3 747.6,632.9 850.7,546.1 		"/>
		
			<linearGradient id="SVGID_00000026876961653923072730000002941847473610197388_" gradientUnits="userSpaceOnUse" x1="799.1288" y1="637.9752" x2="799.1288" y2="489.5268">
			<stop  offset="0.5" style="stop-color:#F5F0FF;stop-opacity:0"/>
			<stop  offset="1" style="stop-color:#F5F0FF"/>
		</linearGradient>
		<path style="fill:url(#SVGID_00000026876961653923072730000002941847473610197388_);" d="M745.3,638v-54.7l0.8-0.7l106.9-93v57.6
			L745.3,638z M749.9,585.4v42.5l98.4-82.9v-45.1L749.9,585.4z"/>
	</g>
	<g>
		<polygon class="st2" points="850.7,644.6 747.6,734.3 747.6,771.2 850.7,684.3 		"/>
		
			<linearGradient id="SVGID_00000123406172658313870770000001703370146782873786_" gradientUnits="userSpaceOnUse" x1="799.1288" y1="776.2274" x2="799.1288" y2="639.4579">
			<stop  offset="0.5" style="stop-color:#F5F0FF;stop-opacity:0"/>
			<stop  offset="1" style="stop-color:#F5F0FF"/>
		</linearGradient>
		<path style="fill:url(#SVGID_00000123406172658313870770000001703370146782873786_);" d="M745.3,776.2v-43l0.8-0.7l106.9-93v46
			L745.3,776.2z M749.9,735.3v30.8l98.4-82.9v-33.5L749.9,735.3z"/>
	</g>
	<g>
		<polygon class="st2" points="747.6,880.7 811.7,828.9 811.7,792.7 747.6,847.3 		"/>
		
			<linearGradient id="SVGID_00000074423558723211060170000010328514254928319620_" gradientUnits="userSpaceOnUse" x1="779.6445" y1="885.6119" x2="779.6445" y2="787.5837">
			<stop  offset="0.5" style="stop-color:#F5F0FF;stop-opacity:0"/>
			<stop  offset="1" style="stop-color:#F5F0FF"/>
		</linearGradient>
		<path style="fill:url(#SVGID_00000074423558723211060170000010328514254928319620_);" d="M745.3,885.6v-39.4l68.8-58.6V830
			L745.3,885.6z M749.9,848.4v27.4l59.4-48v-30L749.9,848.4z"/>
	</g>
	<g>
		<path class="st6" d="M752.4,44c5.2,34,16.7,80.4,43.7,131c17.3,32.5,36.9,58.8,54.6,79.3c0-31.8,0-63.6,0-95.4
			c-15.6-12.2-33-27.8-50.2-47.1C778.6,87.3,763.2,63.7,752.4,44z"/>
		
			<linearGradient id="SVGID_00000110453840974079921090000008275165622243297187_" gradientUnits="userSpaceOnUse" x1="800.5267" y1="260.5713" x2="800.5267" y2="31.3468">
			<stop  offset="0.5" style="stop-color:#F5F0FF;stop-opacity:0"/>
			<stop  offset="1" style="stop-color:#F5F0FF"/>
		</linearGradient>
		<path style="fill:url(#SVGID_00000110453840974079921090000008275165622243297187_);" d="M853,260.6l-4.1-4.8
			c-21.4-24.7-39.9-51.6-54.9-79.7c-22.1-41.4-36.9-85.8-43.9-131.7l-2-13.1l6.4,11.6c13.2,23.9,29.2,46.6,47.8,67.3
			c15,16.8,31.8,32.6,49.9,46.8l0.9,0.7V260.6z M756.9,56.6c7.6,40.8,21.5,80.2,41.3,117.3c13.9,26,30.8,50.9,50.2,74V160
			c-18-14.2-34.7-29.9-49.6-46.7C782.9,95.7,768.9,76.6,756.9,56.6z"/>
	</g>
	<polygon class="st12" points="352.8,313.1 217.3,288.9 262.4,345 390.1,366 	"/>
	<polygon class="st12" points="609.9,366 737.6,345 782.7,288.9 647.2,313.1 	"/>
</g>
</svg>
